<?xml version="1.0" standalone="no"?>
<!DOCTYPE svg PUBLIC "-//W3C//DTD SVG 20010904//EN"
 "http://www.w3.org/TR/2001/REC-SVG-20010904/DTD/svg10.dtd">
<svg version="1.0" xmlns="http://www.w3.org/2000/svg"
 width="260.000000pt" height="260.000000pt" viewBox="0 0 260.000000 260.000000"
 preserveAspectRatio="xMidYMid meet">
<metadata>
Created by potrace 1.11, written by Peter Selinger 2001-2013
</metadata>
<g transform="translate(0.000000,260.000000) scale(0.100000,-0.100000)"
fill="#000000" stroke="none">
<path d="M1256 2401 c-26 -27 -27 -33 -22 -92 4 -35 8 -93 11 -129 10 -141 16
-187 31 -240 9 -30 18 -64 21 -75 6 -26 9 -37 16 -55 10 -25 37 -127 37 -139
0 -11 -59 -46 -61 -36 -5 18 -8 27 -74 175 -69 155 -68 148 -51 356 l7 80 -65
-1 c-37 -1 -69 -5 -73 -9 -8 -8 -8 -6 -18 -101 -10 -98 -13 -125 -19 -165 -3
-24 9 -74 36 -155 21 -66 41 -131 44 -145 3 -14 14 -49 24 -77 22 -59 20 -70
-15 -96 l-25 -18 -30 64 c-16 35 -30 66 -30 69 0 3 -14 36 -32 74 -17 38 -31
71 -31 74 1 3 4 61 8 129 4 68 8 132 10 142 2 10 0 21 -4 24 -18 10 -93 6
-106 -7 -5 -4 -37 -108 -49 -159 -2 -8 -11 -40 -20 -70 -15 -48 -15 -59 -1
-104 30 -102 87 -298 91 -318 3 -12 6 -26 7 -32 2 -5 6 -16 11 -23 4 -7 5 -16
2 -19 -3 -4 -7 -4 -9 -2 -7 12 -113 135 -123 144 -12 9 -16 39 -29 179 -3 33
-8 63 -10 67 -7 10 -75 -12 -76 -25 -1 -6 -2 -67 -4 -135 l-3 -124 63 -138
c90 -194 96 -208 100 -264 2 -27 6 -79 9 -115 19 -240 16 -223 63 -299 20 -31
42 -66 49 -78 8 -13 15 -26 15 -30 1 -5 9 -19 19 -33 52 -74 81 -134 76 -159
-6 -24 -10 -55 -21 -151 -13 -112 -17 -136 -20 -148 -4 -10 67 -12 343 -10
339 3 347 3 349 23 1 11 4 65 8 120 10 171 12 182 58 267 43 80 64 120 195
368 131 249 130 248 126 288 -2 20 -6 75 -9 122 -3 47 -8 114 -10 150 -3 36
-7 106 -10 155 -9 137 -11 161 -18 172 -7 11 -123 10 -134 -1 -4 -4 -8 -12 -9
-19 -2 -11 -29 -144 -40 -193 -2 -12 -13 -66 -24 -120 -18 -84 -28 -119 -31
-103 -5 28 -10 45 -29 100 -12 35 -26 73 -30 84 -10 23 -23 68 -22 75 0 9 -21
45 -96 160 -75 114 -95 164 -133 335 -5 22 -14 58 -20 80 -5 22 -14 56 -19 75
-4 19 -13 50 -18 68 -6 17 -9 32 -7 32 2 0 -2 15 -10 34 -8 18 -11 36 -8 39 3
4 1 13 -5 20 -7 8 -9 16 -6 19 4 5 -52 54 -82 71 -6 3 -23 -7 -38 -22z"/>
</g>
</svg>
